<svg width="156" height="32" viewBox="0 0 156 32" fill="none" xmlns="http://www.w3.org/2000/svg">
<g clip-path="url(#clip0_0_274)">
<path d="M-3.86962e-05 19.8394V8.00201C-0.00306464 7.90192 0.0142847 7.80226 0.0509163 7.70914C0.0875478 7.61602 0.142702 7.53141 0.213005 7.46047C0.281722 7.39071 0.363836 7.33573 0.454361 7.2989C0.544886 7.26208 0.641926 7.24417 0.739556 7.24627H3.44868C3.54762 7.2433 3.64612 7.26078 3.73807 7.29762C3.83003 7.33446 3.91348 7.3899 3.98328 7.46047C4.05157 7.53248 4.10487 7.61748 4.14007 7.71047C4.17527 7.80346 4.19164 7.90257 4.18825 8.00201V12.3587H9.48595V8.00201C9.48259 7.90185 9.49973 7.80206 9.53631 7.70884C9.5729 7.61562 9.62812 7.53097 9.6986 7.4601C9.76908 7.38924 9.8533 7.33369 9.94601 7.29691C10.0387 7.26012 10.138 7.24289 10.2376 7.24627H12.9346C13.033 7.24288 13.1311 7.2602 13.2224 7.29708C13.3138 7.33396 13.3965 7.38961 13.4652 7.46047C13.534 7.53229 13.588 7.61715 13.6238 7.71013C13.6597 7.8031 13.6769 7.90231 13.6742 8.00201V19.8394C13.6782 19.9379 13.6618 20.0362 13.626 20.128C13.5902 20.2198 13.5358 20.3032 13.4662 20.3727C13.3967 20.4423 13.3135 20.4965 13.222 20.532C13.1305 20.5675 13.0326 20.5835 12.9346 20.5789H10.2376C10.1383 20.5825 10.0394 20.5657 9.94678 20.5296C9.85418 20.4935 9.76985 20.4387 9.69897 20.3688C9.62958 20.2997 9.57493 20.2171 9.5383 20.1261C9.50168 20.0351 9.48387 19.9375 9.48595 19.8394V15.3008H4.18825V19.8394C4.19162 19.9383 4.17442 20.0368 4.13774 20.1287C4.10106 20.2205 4.04571 20.3037 3.97523 20.3728C3.90557 20.4407 3.8231 20.494 3.73268 20.5294C3.64225 20.5648 3.54569 20.5816 3.44868 20.5789H0.739556C0.641217 20.5827 0.543133 20.5664 0.451245 20.531C0.359357 20.4955 0.275569 20.4417 0.204959 20.3728C0.136524 20.3026 0.0830463 20.219 0.0478006 20.1273C0.0125549 20.0356 -0.00372231 19.9376 -3.86962e-05 19.8394Z" fill="black"/>
<path d="M19.2252 21.8438L20.8089 22.054C21.9477 22.054 22.7422 21.2147 23.1924 19.5362C21.9315 19.5767 20.703 19.1298 19.7598 18.2874C18.8407 17.4548 18.0502 15.973 17.3883 13.8418L15.5795 7.9777C15.5541 7.90503 15.5419 7.82839 15.5433 7.75138C15.5589 7.63478 15.6126 7.52671 15.6961 7.44423C15.7523 7.37928 15.8223 7.3278 15.9009 7.29354C15.9795 7.25928 16.0647 7.2431 16.1503 7.24621H18.6785C18.9221 7.25027 19.1577 7.33398 19.3498 7.48466C19.5452 7.63101 19.6866 7.83859 19.7517 8.07469L21.3354 13.2316C21.5776 14.174 21.986 15.0651 22.5413 15.8625C22.7118 16.0861 22.9307 16.2678 23.1814 16.3938C23.4321 16.5199 23.708 16.5869 23.9883 16.59L26.3999 8.07469C26.4629 7.84276 26.5964 7.63646 26.7818 7.48466C26.9582 7.33118 27.1836 7.24655 27.4169 7.24621H29.9692C30.0541 7.23953 30.1393 7.25412 30.2171 7.28868C30.295 7.32324 30.3631 7.37669 30.4154 7.44423C30.4975 7.53201 30.5497 7.64389 30.5641 7.76352C30.5657 7.83568 30.5575 7.90771 30.54 7.9777L27.3687 19.3381C26.8032 21.3508 26.1038 22.7868 25.2705 23.6463C24.8523 24.0731 24.3506 24.408 23.7971 24.6299C23.2436 24.8518 22.6504 24.9559 22.0549 24.9355C21.1241 24.9586 20.1928 24.91 19.2694 24.79C18.9024 24.7621 18.549 24.6381 18.2444 24.4304C18.1792 24.3661 18.1275 24.2894 18.0923 24.2047C18.0571 24.12 18.0391 24.0291 18.0394 23.9373V22.5996C18.036 22.5001 18.0524 22.401 18.0876 22.308C18.1228 22.215 18.1761 22.13 18.2444 22.058C18.3141 21.9873 18.3975 21.9317 18.4895 21.8948C18.5815 21.858 18.6801 21.8406 18.779 21.8438H19.2252Z" fill="black"/>
<path d="M32.3046 23.9453V8.00192C32.3015 7.90182 32.3189 7.80217 32.3555 7.70905C32.3922 7.61593 32.4473 7.53131 32.5176 7.46038C32.586 7.39023 32.6681 7.335 32.7587 7.29815C32.8493 7.26129 32.9465 7.2436 33.0442 7.24617H35.3795C35.4779 7.24445 35.5757 7.26294 35.6667 7.30052C35.7578 7.33809 35.8403 7.39397 35.9092 7.46472C35.978 7.53547 36.0318 7.61961 36.0672 7.71198C36.1026 7.80435 36.1189 7.903 36.1151 8.00192V8.36566C37.4094 7.45479 38.9568 6.97814 40.5365 7.0037C41.3262 6.98533 42.1108 7.13578 42.8384 7.44511C43.566 7.75445 44.2199 8.21562 44.7569 8.79809C45.8877 9.99435 46.4531 11.7052 46.4531 13.9307C46.4531 16.1562 45.8676 17.8617 44.6966 19.0471C43.5256 20.2299 41.9486 20.8227 39.9657 20.8254C38.7756 20.7949 37.5969 20.5851 36.4687 20.203V23.9453C36.4723 24.0452 36.4556 24.1446 36.4197 24.2377C36.3837 24.3309 36.3293 24.4156 36.2597 24.4869C36.191 24.5567 36.1089 24.6116 36.0184 24.6485C35.9278 24.6853 35.8308 24.7032 35.7332 24.7011H33.0241C32.9264 24.7037 32.8292 24.686 32.7386 24.6491C32.648 24.6123 32.5659 24.5571 32.4975 24.4869C32.4308 24.4143 32.3793 24.3289 32.3462 24.2359C32.313 24.1428 32.2989 24.044 32.3046 23.9453ZM36.4808 17.3942C37.3276 17.6904 38.2136 17.858 39.1095 17.8913C40.2162 17.8913 41.0001 17.5747 41.461 16.9415C41.9219 16.3084 42.1536 15.2994 42.1563 13.9145C42.1563 12.5283 41.9393 11.518 41.4971 10.8915C41.275 10.5788 40.9772 10.3281 40.6318 10.1633C40.2865 9.99855 39.905 9.92509 39.5236 9.94989C38.6513 9.94989 37.6344 10.3136 36.4808 11.0451V17.3942Z" fill="black"/>
<path d="M76.4062 19.8394V8.00201C76.4027 7.9022 76.4194 7.80271 76.4553 7.70961C76.4913 7.6165 76.5457 7.53175 76.6153 7.46047C76.684 7.39071 76.7661 7.33573 76.8566 7.2989C76.9471 7.26208 77.0442 7.24417 77.1418 7.24627H79.67C79.7697 7.24289 79.8689 7.26012 79.9616 7.29691C80.0544 7.33369 80.1386 7.38924 80.209 7.4601C80.2795 7.53097 80.3348 7.61562 80.3713 7.70884C80.4079 7.80206 80.425 7.90185 80.4217 8.00201V15.996L84.6783 8.12325C84.8173 7.86464 85.0227 7.6483 85.2732 7.49683C85.5031 7.34134 85.772 7.25447 86.049 7.24627H89.4334C89.533 7.24289 89.6322 7.26012 89.7249 7.29691C89.8176 7.33369 89.9019 7.38924 89.9724 7.4601C90.0428 7.53097 90.0981 7.61562 90.1347 7.70884C90.1713 7.80206 90.1884 7.90185 90.185 8.00201V19.8394C90.1884 19.9383 90.1712 20.0368 90.1345 20.1287C90.0978 20.2205 90.0424 20.3037 89.972 20.3728C89.9006 20.4418 89.8161 20.4957 89.7236 20.5311C89.631 20.5665 89.5323 20.5828 89.4334 20.5789H86.9051C86.807 20.5828 86.7092 20.5662 86.6178 20.53C86.5265 20.4938 86.4436 20.4389 86.3746 20.3688C86.307 20.2987 86.2541 20.2158 86.2189 20.1249C86.1837 20.034 86.1669 19.9369 86.1696 19.8394V11.8575L81.9009 19.706C81.7574 19.9567 81.5544 20.1678 81.31 20.3203C81.0818 20.4803 80.8123 20.5701 80.5342 20.5789H77.1338C77.036 20.5835 76.9383 20.5676 76.8469 20.532C76.7556 20.4965 76.6727 20.4422 76.6035 20.3726C76.5342 20.3029 76.4802 20.2196 76.4448 20.1277C76.4095 20.0359 76.3936 19.9377 76.3982 19.8394H76.4062Z" fill="black"/>
<path d="M93.1554 19.8394V8.00209C93.1524 7.90199 93.1697 7.80234 93.2064 7.70922C93.243 7.6161 93.2982 7.53148 93.3685 7.46055C93.4372 7.39079 93.5193 7.33581 93.6098 7.29898C93.7004 7.26216 93.7974 7.24425 93.895 7.24634H96.6041C96.7032 7.24264 96.8019 7.25978 96.894 7.29666C96.986 7.33355 97.0694 7.38938 97.1388 7.46055C97.207 7.53256 97.2603 7.61756 97.2955 7.71055C97.3307 7.80354 97.3471 7.90265 97.3438 8.00209V12.3588H102.641V8.00209C102.638 7.90193 102.655 7.80214 102.692 7.70892C102.728 7.6157 102.784 7.53104 102.854 7.46018C102.925 7.38932 103.009 7.33377 103.101 7.29698C103.194 7.2602 103.293 7.24296 103.393 7.24634H106.09C106.189 7.24338 106.288 7.26086 106.379 7.2977C106.471 7.33454 106.555 7.38998 106.625 7.46055C106.693 7.53256 106.746 7.61756 106.782 7.71055C106.817 7.80354 106.833 7.90265 106.83 8.00209V19.8394C106.833 19.9377 106.817 20.0357 106.782 20.1274C106.747 20.2191 106.693 20.3026 106.625 20.3729C106.554 20.4414 106.47 20.495 106.378 20.5304C106.286 20.5658 106.188 20.5823 106.09 20.579H103.393C103.294 20.5826 103.195 20.5658 103.102 20.5297C103.01 20.4935 102.925 20.4388 102.854 20.3689C102.785 20.2998 102.73 20.2172 102.694 20.1262C102.657 20.0351 102.639 19.9376 102.641 19.8394V15.3009H97.3357V19.8394C97.3391 19.9384 97.3219 20.0369 97.2852 20.1288C97.2485 20.2206 97.1931 20.3038 97.1227 20.3729C97.0533 20.4412 96.9709 20.4947 96.8804 20.5301C96.7899 20.5655 96.6932 20.5821 96.5961 20.579H93.887C93.7892 20.5827 93.6918 20.5663 93.6006 20.5309C93.5093 20.4955 93.4263 20.4417 93.3564 20.3729C93.2881 20.3027 93.235 20.2191 93.2004 20.1273C93.1658 20.0355 93.1505 19.9375 93.1554 19.8394Z" fill="black"/>
<path d="M110.648 19.7061C110.133 19.3609 109.715 18.8887 109.434 18.3347C109.152 17.7807 109.017 17.1633 109.04 16.5417C109.015 15.9231 109.15 15.3085 109.432 14.7581C109.714 14.2077 110.133 13.7402 110.648 13.4015C111.885 12.6278 113.325 12.2475 114.78 12.3103H118.8C118.8 11.3592 118.601 10.6978 118.205 10.3259C117.803 9.95414 117.12 9.76418 116.131 9.76418C115.142 9.76418 114.451 10.0107 114.049 10.5038C113.878 10.7325 113.656 10.918 113.402 11.0457C113.147 11.1733 112.866 11.2396 112.582 11.2393H110.777C110.677 11.2424 110.578 11.2249 110.486 11.1881C110.393 11.1513 110.309 11.0958 110.238 11.0251C110.169 10.956 110.114 10.8735 110.078 10.7824C110.041 10.6914 110.023 10.5938 110.025 10.4957C110.025 8.16782 112.224 7.00391 116.621 7.00391C118.543 7.00391 120.083 7.43632 121.244 8.30119C122.404 9.16605 122.984 10.5024 122.984 12.3103V19.8395C122.989 19.9378 122.973 20.036 122.937 20.1279C122.902 20.2197 122.848 20.3031 122.779 20.3727C122.71 20.4423 122.627 20.4966 122.535 20.5321C122.444 20.5677 122.346 20.5836 122.248 20.579H119.913C119.814 20.5835 119.716 20.5671 119.624 20.5309C119.532 20.4947 119.448 20.4395 119.379 20.3689C119.311 20.2989 119.258 20.2159 119.223 20.125C119.188 20.0341 119.171 19.937 119.174 19.8395V19.4596C117.885 20.3828 116.334 20.8633 114.752 20.8296C113.302 20.8859 111.87 20.4938 110.648 19.7061ZM113.735 15.4828C113.579 15.6148 113.453 15.7796 113.367 15.9657C113.281 16.1518 113.236 16.3546 113.236 16.5598C113.236 16.7651 113.281 16.9679 113.367 17.154C113.453 17.3401 113.579 17.5049 113.735 17.6369C114.15 17.9445 114.66 18.0948 115.174 18.0612C116.452 18.0514 117.7 17.6711 118.768 16.966V15.0544H115.054C114.578 15.0356 114.11 15.1874 113.735 15.4828Z" fill="black"/>
<path d="M125.95 19.8394V8.00209C125.947 7.90228 125.964 7.80279 125.999 7.70969C126.035 7.61658 126.09 7.53182 126.159 7.46055C126.228 7.39079 126.31 7.33581 126.401 7.29898C126.491 7.26216 126.588 7.24425 126.686 7.24634H129.399C129.498 7.24296 129.596 7.26027 129.687 7.29716C129.778 7.33404 129.861 7.38969 129.93 7.46055C129.998 7.53256 130.051 7.61756 130.086 7.71055C130.122 7.80354 130.138 7.90265 130.135 8.00209V12.3588H135.436V8.00209C135.432 7.90213 135.449 7.80243 135.485 7.70922C135.521 7.61601 135.576 7.53131 135.646 7.46038C135.717 7.38945 135.8 7.33383 135.893 7.29701C135.986 7.26018 136.085 7.24293 136.184 7.24634H138.881C138.98 7.24264 139.079 7.25978 139.171 7.29666C139.263 7.33355 139.346 7.38938 139.416 7.46055C139.484 7.53256 139.537 7.61756 139.572 7.71055C139.608 7.80354 139.624 7.90265 139.621 8.00209V19.8394C139.625 19.9381 139.609 20.0367 139.574 20.1288C139.538 20.2209 139.484 20.3045 139.414 20.3742C139.344 20.4439 139.261 20.4981 139.169 20.5334C139.077 20.5687 138.979 20.5842 138.881 20.579H136.184C136.085 20.5826 135.986 20.5658 135.893 20.5297C135.801 20.4935 135.716 20.4388 135.645 20.3689C135.577 20.2996 135.522 20.2169 135.487 20.1258C135.451 20.0348 135.434 19.9373 135.436 19.8394V15.3009H130.135V19.8394C130.139 19.9385 130.122 20.0372 130.085 20.1292C130.048 20.2212 129.993 20.3042 129.922 20.3729C129.853 20.4407 129.771 20.4939 129.681 20.5293C129.591 20.5647 129.496 20.5816 129.399 20.579H126.686C126.588 20.5836 126.49 20.5676 126.399 20.5321C126.308 20.4966 126.225 20.4423 126.156 20.3726C126.086 20.303 126.032 20.2196 125.997 20.1278C125.962 20.036 125.946 19.9378 125.95 19.8394Z" fill="black"/>
<path d="M149.026 20.8256C146.762 20.8256 145.001 20.2409 143.745 19.0716C142.488 17.9023 141.859 16.1847 141.859 13.9188C141.859 11.6529 142.484 9.93393 143.733 8.76192C144.981 7.5899 146.723 7.00391 148.958 7.00391C151.187 7.00391 152.902 7.36088 154.103 8.07487C154.664 8.38293 155.13 8.84215 155.446 9.40106C155.763 9.95997 155.918 10.5965 155.896 11.2393C155.899 11.3379 155.883 11.4363 155.847 11.5282C155.811 11.62 155.756 11.7033 155.686 11.7728C155.615 11.8414 155.53 11.895 155.438 11.9304C155.345 11.9658 155.247 11.9823 155.148 11.9789H153.343C153.055 11.9669 152.774 11.8788 152.53 11.7234C152.286 11.5681 152.087 11.351 151.952 11.0938C151.478 10.3287 150.638 9.9474 149.432 9.9501C148.226 9.9501 147.382 10.2572 146.904 10.8796C146.426 11.502 146.18 12.4962 146.18 13.9147C146.18 15.3333 146.43 16.3396 146.928 16.9539C147.426 17.5682 148.287 17.8915 149.517 17.8915C150.747 17.8915 151.599 17.5116 152.073 16.7478C152.206 16.4929 152.403 16.2773 152.644 16.1221C152.885 15.9669 153.162 15.8775 153.448 15.8627H155.252C155.352 15.8597 155.451 15.8771 155.544 15.9139C155.636 15.9507 155.72 16.0062 155.791 16.0769C155.86 16.146 155.915 16.2286 155.952 16.3196C155.988 16.4106 156.006 16.5082 156.004 16.6063C156.027 17.2496 155.871 17.8866 155.554 18.4457C155.236 19.0047 154.77 19.4636 154.207 19.7708C153.01 20.4713 151.282 20.8229 149.026 20.8256Z" fill="black"/>
<path d="M56.4777 16.4971V4.19092C56.4777 4.19092 52.7195 5.46802 52.4904 5.56906C51.6291 5.94735 50.8954 6.56864 50.3782 7.35768C49.861 8.14672 49.5824 9.06964 49.5763 10.0146V19.9646C49.5836 20.9088 49.8622 21.8307 50.3784 22.6194C50.8947 23.4081 51.6268 24.03 52.4864 24.4102C52.7155 24.5112 56.4777 25.7883 56.4777 25.7883V20.979H54.6529L56.4777 16.4971Z" fill="#60AAFB"/>
<path d="M64.8423 8.40616V0C64.8423 0 61.08 1.28112 60.8549 1.37811C59.9942 1.75725 59.2611 2.37877 58.744 3.16762C58.2269 3.95648 57.9479 4.87893 57.9408 5.82368V16.5537L59.7375 20.9993H57.9408C57.9408 26.7825 57.9408 32.0162 57.9408 32.0162C57.9408 32.0162 61.703 30.735 61.9321 30.634C62.7925 30.2544 63.5253 29.6328 64.0424 28.8441C64.5594 28.0553 64.8386 27.1331 64.8462 26.1884V12.9528H63.0094L64.8423 8.40616Z" fill="#355DFB"/>
<path d="M73.1465 10.0188C73.1403 9.07377 72.8618 8.15087 72.3446 7.36183C71.8273 6.57279 71.0936 5.95148 70.2324 5.57318C70.0032 5.47215 66.2451 4.19507 66.2451 4.19507V8.44261L68.0779 12.9569H66.2451V25.8005C66.2451 25.8005 70.0073 24.5234 70.2364 24.4224C71.096 24.0423 71.828 23.4204 72.3443 22.6317C72.8606 21.843 73.1392 20.921 73.1465 19.9768V10.0188Z" fill="#0000DE"/>
</g>
<defs>
<clipPath id="clip0_0_274">
<rect width="156" height="32" fill="white"/>
</clipPath>
</defs>
</svg>
