<svg width="23" height="23" viewBox="0 0 23 23" fill="none" xmlns="http://www.w3.org/2000/svg">
<path d="M7.90625 12.1174L15.9848 19.2265C16.0782 19.3088 16.1915 19.3653 16.3134 19.3907C16.4353 19.416 16.5617 19.4092 16.6802 19.371C16.7987 19.3328 16.9052 19.2645 16.9894 19.1727C17.0735 19.0809 17.1324 18.9689 17.1602 18.8475L20.5395 4.10122C20.5687 3.97373 20.5626 3.84067 20.5218 3.7164C20.481 3.59213 20.407 3.48136 20.3079 3.39601C20.2088 3.31066 20.0883 3.25398 19.9593 3.23208C19.8304 3.21017 19.6979 3.22387 19.5761 3.2717L2.99485 9.78577C2.85034 9.84254 2.7281 9.94458 2.64641 10.0766C2.56473 10.2087 2.528 10.3636 2.54172 10.5183C2.55544 10.6729 2.61887 10.819 2.72251 10.9346C2.82616 11.0502 2.96445 11.1291 3.1167 11.1595L7.90625 12.1174Z" stroke="black" stroke-linecap="round" stroke-linejoin="round"/>
<path d="M7.90625 12.1173L20.1351 3.2854" stroke="black" stroke-linecap="round" stroke-linejoin="round"/>
<path d="M11.9409 15.6679L9.13323 18.4755C9.03271 18.5761 8.90465 18.6445 8.76522 18.6722C8.6258 18.7 8.48128 18.6857 8.34995 18.6313C8.21861 18.5769 8.10636 18.4848 8.02738 18.3666C7.94841 18.2484 7.90625 18.1095 7.90625 17.9673V12.1174" stroke="black" stroke-linecap="round" stroke-linejoin="round"/>
</svg>
