<svg width="23" height="23" viewBox="0 0 23 23" fill="none" xmlns="http://www.w3.org/2000/svg">
<path d="M14.375 11.5L10.0625 8.625V14.375L14.375 11.5Z" stroke="black" stroke-linecap="round" stroke-linejoin="round"/>
<path d="M2.15625 11.5001C2.15625 14.1734 2.43244 15.742 2.6424 16.5481C2.69853 16.7683 2.8063 16.9719 2.95681 17.1421C3.10731 17.3123 3.29621 17.4442 3.50785 17.5269C6.51554 18.6827 11.5 18.651 11.5 18.651C11.5 18.651 16.4844 18.6827 19.4921 17.5269C19.7038 17.4443 19.8927 17.3124 20.0432 17.1421C20.1937 16.9719 20.3015 16.7683 20.3576 16.5481C20.5675 15.742 20.8438 14.1734 20.8438 11.5001C20.8438 8.82675 20.5676 7.25823 20.3576 6.45208C20.3015 6.23191 20.1937 6.02828 20.0432 5.85807C19.8927 5.68785 19.7038 5.55595 19.4921 5.47329C16.4845 4.31747 11.5 4.34921 11.5 4.34921C11.5 4.34921 6.5156 4.31747 3.50788 5.47328C3.29624 5.55594 3.10734 5.68784 2.95683 5.85805C2.80633 6.02827 2.69855 6.23189 2.64242 6.45206C2.43245 7.25821 2.15625 8.82675 2.15625 11.5001Z" stroke="black" stroke-linecap="round" stroke-linejoin="round"/>
</svg>
